<svg xmlns="http://www.w3.org/2000/svg" viewBox="0 0 536 216" width="536" height="216">

  <rect width="536" height="216" fill="#17181b"></rect>
  <text x="16" y="26" fill="#e9eaec" font-family="Segoe UI, system-ui, sans-serif" font-size="12" font-weight="600">Anchors space icons — 16 px grid · 1.5 px stroke · currentColor</text>
  <g transform="translate(16,44)" color="#e9eaec">
    <g transform="scale(2)"><path d="M2.8 7.6L8 3l5.2 4.6M4.2 6.8V13h7.6V6.8M6.8 13v-3.4h2.4V13" fill="none" stroke="currentColor" stroke-width="1.5" stroke-linecap="round" stroke-linejoin="round"></path></g>
    <text x="16" y="46" text-anchor="middle" fill="#8e919a" font-family="Segoe UI, system-ui, sans-serif" font-size="10">icon:home</text>
  </g><g transform="translate(88,44)" color="#e9eaec">
    <g transform="scale(2)"><path d="M6 5V3.9A1.1 1.1 0 017.1 2.8h1.8A1.1 1.1 0 0110 3.9V5M2.5 8.4h11" fill="none" stroke="currentColor" stroke-width="1.5" stroke-linecap="round" stroke-linejoin="round"></path><rect x="2.5" y="5" width="11" height="8" rx="1.5" fill="none" stroke="currentColor" stroke-width="1.5" stroke-linejoin="round"></rect></g>
    <text x="16" y="46" text-anchor="middle" fill="#8e919a" font-family="Segoe UI, system-ui, sans-serif" font-size="10">icon:work</text>
  </g><g transform="translate(160,44)" color="#e9eaec">
    <g transform="scale(2)"><path d="M5.8 4.6L2.4 8l3.4 3.4M10.2 4.6L13.6 8l-3.4 3.4" fill="none" stroke="currentColor" stroke-width="1.5" stroke-linecap="round" stroke-linejoin="round"></path></g>
    <text x="16" y="46" text-anchor="middle" fill="#8e919a" font-family="Segoe UI, system-ui, sans-serif" font-size="10">icon:code</text>
  </g><g transform="translate(232,44)" color="#e9eaec">
    <g transform="scale(2)"><path d="M8 3.6C6.9 2.8 5.1 2.5 3 2.7v10.1c2.1-.2 3.9.1 5 .9 1.1-.8 2.9-1.1 5-.9V2.7c-2.1-.2-3.9.1-5 .9zM8 3.6v10.1" fill="none" stroke="currentColor" stroke-width="1.5" stroke-linecap="round" stroke-linejoin="round"></path></g>
    <text x="16" y="46" text-anchor="middle" fill="#8e919a" font-family="Segoe UI, system-ui, sans-serif" font-size="10">icon:study</text>
  </g><g transform="translate(304,44)" color="#e9eaec">
    <g transform="scale(2)"><path d="M13.6 2.4L2.4 7.1l4.3 1.9 1.7 4.6zM13.6 2.4L6.7 9" fill="none" stroke="currentColor" stroke-width="1.5" stroke-linecap="round" stroke-linejoin="round"></path></g>
    <text x="16" y="46" text-anchor="middle" fill="#8e919a" font-family="Segoe UI, system-ui, sans-serif" font-size="10">icon:travel</text>
  </g><g transform="translate(376,44)" color="#e9eaec">
    <g transform="scale(2)"><path d="M2 4.4h12v7.2H2z" fill="none" stroke="currentColor" stroke-width="1.5" stroke-linecap="round" stroke-linejoin="round"></path><circle cx="8" cy="8" r="1.7" fill="none" stroke="currentColor" stroke-width="1.5"></circle></g>
    <text x="16" y="46" text-anchor="middle" fill="#8e919a" font-family="Segoe UI, system-ui, sans-serif" font-size="10">icon:finance</text>
  </g><g transform="translate(448,44)" color="#e9eaec">
    <g transform="scale(2)"><path d="M2.4 3h1.7l1.5 7h6.6l1.4-5.2H4.5" fill="none" stroke="currentColor" stroke-width="1.5" stroke-linecap="round" stroke-linejoin="round"></path><circle cx="6.4" cy="12.8" r="1" fill="currentColor"></circle><circle cx="11" cy="12.8" r="1" fill="currentColor"></circle></g>
    <text x="16" y="46" text-anchor="middle" fill="#8e919a" font-family="Segoe UI, system-ui, sans-serif" font-size="10">icon:shopping</text>
  </g><g transform="translate(16,128)" color="#e9eaec">
    <g transform="scale(2)"><path d="M6.9 6.1l3.2 1.9-3.2 1.9z" fill="currentColor" stroke="currentColor" stroke-width="1" stroke-linejoin="round"></path><rect x="2.4" y="3.4" width="11.2" height="9.2" rx="1.5" fill="none" stroke="currentColor" stroke-width="1.5" stroke-linejoin="round"></rect></g>
    <text x="16" y="46" text-anchor="middle" fill="#8e919a" font-family="Segoe UI, system-ui, sans-serif" font-size="10">icon:media</text>
  </g><g transform="translate(88,128)" color="#e9eaec">
    <g transform="scale(2)"><path d="M3 9.6V8a5 5 0 0110 0v1.6" fill="none" stroke="currentColor" stroke-width="1.5" stroke-linecap="round" stroke-linejoin="round"></path><rect x="2.6" y="9.4" width="2.4" height="3.4" rx="1" fill="currentColor"></rect><rect x="11" y="9.4" width="2.4" height="3.4" rx="1" fill="currentColor"></rect></g>
    <text x="16" y="46" text-anchor="middle" fill="#8e919a" font-family="Segoe UI, system-ui, sans-serif" font-size="10">icon:music</text>
  </g><g transform="translate(160,128)" color="#e9eaec">
    <g transform="scale(2)"><path d="M5.4 4.6h5.2c2.1 0 3.4 1.7 3.4 3.6 0 1.6-1.1 2.9-2.5 2.9-.9 0-1.5-.6-2.2-1.1H6.7c-.7.5-1.3 1.1-2.2 1.1-1.4 0-2.5-1.3-2.5-2.9 0-1.9 1.3-3.6 3.4-3.6zM5.2 7.4h2.2M6.3 6.3v2.2" fill="none" stroke="currentColor" stroke-width="1.5" stroke-linecap="round" stroke-linejoin="round"></path><circle cx="10.9" cy="7.4" r="1" fill="currentColor"></circle></g>
    <text x="16" y="46" text-anchor="middle" fill="#8e919a" font-family="Segoe UI, system-ui, sans-serif" font-size="10">icon:gaming</text>
  </g><g transform="translate(232,128)" color="#e9eaec">
    <g transform="scale(2)"><path d="M8 2.4a4 4 0 012.3 7.3c-.5.4-.8.8-.8 1.4v.2H6.5v-.2c0-.6-.3-1-.8-1.4A4 4 0 018 2.4zM6.6 13.4h2.8" fill="none" stroke="currentColor" stroke-width="1.5" stroke-linecap="round" stroke-linejoin="round"></path></g>
    <text x="16" y="46" text-anchor="middle" fill="#8e919a" font-family="Segoe UI, system-ui, sans-serif" font-size="10">icon:ideas</text>
  </g><g transform="translate(304,128)" color="#e9eaec">
    <g transform="scale(2)"><path d="M8 2.6l5.8 2.9L8 8.4 2.2 5.5zM2.6 8.8L8 11.5l5.4-2.7" fill="none" stroke="currentColor" stroke-width="1.5" stroke-linecap="round" stroke-linejoin="round"></path></g>
    <text x="16" y="46" text-anchor="middle" fill="#8e919a" font-family="Segoe UI, system-ui, sans-serif" font-size="10">icon:projects</text>
  </g><g transform="translate(376,128)" color="#e9eaec">
    <g transform="scale(2)"><path d="M8 13.2S2.4 9.9 2.4 6.1a3 3 0 015.6-1.5A3 3 0 0113.6 6.1c0 3.8-5.6 7.1-5.6 7.1z" fill="none" stroke="currentColor" stroke-width="1.5" stroke-linecap="round" stroke-linejoin="round"></path></g>
    <text x="16" y="46" text-anchor="middle" fill="#8e919a" font-family="Segoe UI, system-ui, sans-serif" font-size="10">icon:heart</text>
  </g><g transform="translate(448,128)" color="#e9eaec">
    <g transform="scale(2)"><path d="M6.4 2.6h3.2M7 2.6v3.8l-3.7 5.9a1.2 1.2 0 001 1.9h7.4a1.2 1.2 0 001-1.9L9 6.4V2.6" fill="none" stroke="currentColor" stroke-width="1.5" stroke-linecap="round" stroke-linejoin="round"></path></g>
    <text x="16" y="46" text-anchor="middle" fill="#8e919a" font-family="Segoe UI, system-ui, sans-serif" font-size="10">icon:lab</text>
  </g>
</svg>
